<svg xmlns="http://www.w3.org/2000/svg" width="792" height="612" viewBox="0 0 792 612"><path fill="none" stroke="#b8babc" stroke-dasharray="12.09 12.09" stroke-miterlimit="10" stroke-width="5" d="M203.97-26.42v670.89"/><path fill="none" stroke="#30b44a" stroke-linecap="round" stroke-linejoin="round" stroke-width="7" d="M169.26 191.98v375.37"/><path fill="none" stroke="#f36b21" stroke-linecap="round" stroke-linejoin="round" stroke-width="7" d="M616.86 220.13v265.81l-447.6 81.41"/><path fill="none" stroke="#cf4e9c" stroke-linecap="round" stroke-linejoin="round" stroke-width="7" d="M169.26 191.98l222.23 39.71v105.2l-222.23 37.67"/><path fill="none" stroke="#00adaa" stroke-linecap="round" stroke-linejoin="round" stroke-width="7" d="M169.26 374.56l81.13 94.55-81.13 98.24"/><path fill="#231f20" d="M364.47 42.66v-.06a1.53 1.53 0 0 1-.8-1.36 2 2 0 0 1 .94-1.49v-.06a2.43 2.43 0 0 1-1-2c0-1.9 1.6-2.88 3.39-2.88a4.2 4.2 0 0 1 1.32.2h3.21v1.71h-1.61a1.79 1.79 0 0 1 .36 1c0 1.83-1.44 2.66-3.28 2.66a4.16 4.16 0 0 1-1.09-.16.66.66 0 0 0-.35.58c0 .43.42.61 1.35.61h1.47c2.08 0 3.22.57 3.22 2 0 1.66-1.84 2.86-4.73 2.86-2.06 0-3.6-.61-3.6-2a1.84 1.84 0 0 1 1.2-1.61zm2.7 2.15c1.27 0 2.15-.43 2.15-1s-.48-.62-1.4-.62h-1a5.2 5.2 0 0 1-1.22-.1c-.4.26-.56.5-.56.79.01.61.78.93 2.03.93zm1-7.16a1.19 1.19 0 0 0-1.17-1.29 1.31 1.31 0 0 0 0 2.64 1.2 1.2 0 0 0 1.18-1.35zm5.1-2.65h5.53v7.9h-2.35v-6.09h-3.18zm2.68-2.6a1.57 1.57 0 0 1 3.14 0 1.58 1.58 0 0 1-3.14 0zm8.44 4.41h-2v-1.75l2.1-.09.3-2.12h1.94V35h3.34v1.84h-3.34v2.78c0 1.2.51 1.67 1.66 1.67A4.81 4.81 0 0 0 390 41l.42 1.69a8.9 8.9 0 0 1-2.61.44c-2.53 0-3.42-1.41-3.42-3.49zm17.4-5.13h4.66v8.22a1.17 1.17 0 0 0 1.28 1.29 3.37 3.37 0 0 0 1.25-.25l.53 1.72a7 7 0 0 1-2.39.44c-2 0-3-1.28-3-3.3v-6.26h-2.31zm13.41 3.09a4.17 4.17 0 1 1-4.05 4.16 4 4 0 0 1 4.05-4.16zm0 6.42c1.09 0 1.63-.88 1.63-2.26s-.54-2.25-1.63-2.25-1.63.88-1.63 2.25.54 2.26 1.63 2.26zm6.86 1.47v-.06a1.55 1.55 0 0 1-.8-1.36 2 2 0 0 1 .95-1.49v-.06a2.43 2.43 0 0 1-1-2c0-1.9 1.6-2.88 3.39-2.88a4.1 4.1 0 0 1 1.31.2h3.22v1.71h-1.62a1.72 1.72 0 0 1 .37 1c0 1.83-1.44 2.66-3.28 2.66a4.16 4.16 0 0 1-1.09-.16.66.66 0 0 0-.35.58c0 .43.42.61 1.35.61h1.47c2.08 0 3.22.57 3.22 2 0 1.66-1.85 2.86-4.73 2.86-2.06 0-3.6-.61-3.6-2a1.84 1.84 0 0 1 1.19-1.61zm2.71 2.15c1.26 0 2.15-.43 2.15-1s-.49-.62-1.4-.62h-1a5.2 5.2 0 0 1-1.22-.1c-.4.26-.56.5-.56.79.01.61.78.93 2.03.93zm1-7.16a1.19 1.19 0 0 0-1.22-1.29 1.31 1.31 0 0 0 0 2.61 1.2 1.2 0 0 0 1.23-1.32zM64.32 80.27a3.07 3.07 0 0 1 .09-.76l1.42-6.71h-2.27l.18-.87h3.32l-1.6 7.62a3.37 3.37 0 0 0-.07.62.92.92 0 0 0 1 1 2.81 2.81 0 0 0 1.33-.38l.27.82a4.14 4.14 0 0 1-1.89.45 1.67 1.67 0 0 1-1.78-1.79zm8.68.09a3 3 0 0 1 .11-.74l.82-3.62h-2.49l.18-.87h3.56l-1 4.62a2.66 2.66 0 0 0-.06.45.93.93 0 0 0 1.05 1 3.08 3.08 0 0 0 1.31-.37l.25.81a4.13 4.13 0 0 1-1.87.45A1.64 1.64 0 0 1 73 80.36zm1-7.45a1 1 0 0 1 1-1 .72.72 0 0 1 .81.75 1 1 0 0 1-1 1 .72.72 0 0 1-.81-.75zm5.6 2.19h1.07l.85 4c.14.66.25 1.36.39 2H82c.32-.64.71-1.31 1.13-2l2.34-4h1.1l-4.17 6.8h-1.26zm8.07 4.03a4 4 0 0 1 3.88-4.2 2.44 2.44 0 0 1 2.59 2.62 4.5 4.5 0 0 1-.14 1.22h-5.26a2.81 2.81 0 0 0 0 .3 1.94 1.94 0 0 0 2 2.15 3.77 3.77 0 0 0 2.32-.88l.41.72a4.82 4.82 0 0 1-2.94 1 2.67 2.67 0 0 1-2.86-2.93zm1.24-1.2h4.18a2 2 0 0 0 0-.42 1.56 1.56 0 0 0-1.64-1.73 2.91 2.91 0 0 0-2.54 2.15zm15.32-2.83h1.06v5.86c.24-.64.44-1.23.72-1.88l1.57-3.64h1.09l.14 3.64v1.88h.05c.26-.64.45-1.21.7-1.86l1.63-4h1l-2.85 6.8h-1.36l.02-3.5v-1.85c-.25.73-.39 1.18-.67 1.85l-1.48 3.5h-1.4zm8.64 4.03a4 4 0 0 1 3.88-4.2 2.44 2.44 0 0 1 2.59 2.62 4.5 4.5 0 0 1-.18 1.22h-5.22a2.81 2.81 0 0 0 0 .3 1.94 1.94 0 0 0 2 2.15 3.77 3.77 0 0 0 2.32-.88l.41.72a4.82 4.82 0 0 1-2.94 1 2.67 2.67 0 0 1-2.86-2.93zm1.24-1.2h4.18a3 3 0 0 0 0-.42 1.56 1.56 0 0 0-1.64-1.73 2.91 2.91 0 0 0-2.54 2.15zm7.97 3.12l-.26.85h-.89l2-10H124l-.55 2.66-.37 1.5a3.91 3.91 0 0 1 2.48-1.16c1.44 0 2.34 1 2.34 2.7 0 2.47-1.62 4.44-3.74 4.44a2.54 2.54 0 0 1-2.08-.99zm4.72-3.26c0-1.32-.62-2-1.58-2a3.41 3.41 0 0 0-2.3 1.31l-.62 3.06a2 2 0 0 0 1.75 1c1.57.02 2.75-1.54 2.75-3.37zm2.75 3.04l.62-.69a3.36 3.36 0 0 0 2.59 1.09c1 0 1.65-.32 1.65-1.08s-.65-.92-1.79-1.3c-1.41-.48-2-1-2-2 0-1.3 1.16-1.93 2.54-1.93A4 4 0 0 1 136 76l-.6.65a3.65 3.65 0 0 0-2.36-.92c-.88 0-1.41.36-1.41 1s.59.91 1.68 1.28c1.27.44 2.16.89 2.16 2 0 1.47-1.28 2.06-2.88 2.06a4.14 4.14 0 0 1-3.04-1.24zm10.66-.47a3 3 0 0 1 .11-.74l.81-3.65h-2.49l.18-.87h3.56l-1 4.62a2.66 2.66 0 0 0-.06.45.93.93 0 0 0 1 1 3 3 0 0 0 1.3-.37l.26.81a4.13 4.13 0 0 1-1.87.45 1.64 1.64 0 0 1-1.8-1.7zm1-7.45a1 1 0 0 1 1-1 .72.72 0 0 1 .81.75 1 1 0 0 1-1 1 .73.73 0 0 1-.85-.75zm6.6 7.22a5.69 5.69 0 0 1 .11-.89l.67-3.27h-2l.15-.8 2-.07.59-2.19h.88l-.45 2.19h3.36l-.12.9h-3.36l-.69 3.3a3.1 3.1 0 0 0-.07.63 1.15 1.15 0 0 0 1.26 1.28 3.78 3.78 0 0 0 1.77-.49l.35.77a4.7 4.7 0 0 1-2.4.61 1.81 1.81 0 0 1-2.05-1.97zm7.05-1a4 4 0 0 1 3.89-4.2 2.44 2.44 0 0 1 2.59 2.62 4.43 4.43 0 0 1-.19 1.22h-5.21a2.81 2.81 0 0 0 0 .3 1.93 1.93 0 0 0 2 2.15 3.78 3.78 0 0 0 2.33-.88l.41.72a4.83 4.83 0 0 1-3 1 2.68 2.68 0 0 1-2.82-2.93zm1.25-1.2h4.18a3 3 0 0 0 0-.42 1.56 1.56 0 0 0-1.64-1.73 2.91 2.91 0 0 0-2.54 2.15zM29.53 562.06h1.07l1 7.87h-1l-.24-2.46h-2.82l-1.26 2.46h-1zm-1.62 4.69h2.39l-.13-1.34c-.09-.84-.16-1.73-.24-2.57h-.05c-.45.86-.84 1.67-1.27 2.54zm5.45 1.09c0-2.09 1.43-3.88 3.2-3.88a2 2 0 0 1 1.76.85l.19-1.14.46-2.28h.92l-1.72 8.54h-.76l.1-.89a3.11 3.11 0 0 1-2.15 1c-1.21.03-2-.75-2-2.2zm4.28.34l.53-2.59a1.75 1.75 0 0 0-1.49-.87c-1.33 0-2.37 1.42-2.37 3 0 1.09.51 1.61 1.33 1.61a2.85 2.85 0 0 0 2-1.15zm2.92-.34c0-2.09 1.43-3.88 3.2-3.88a2 2 0 0 1 1.76.85l.19-1.14.46-2.28h.92l-1.72 8.54h-.76l.1-.89a3.11 3.11 0 0 1-2.15 1c-1.21.03-2-.75-2-2.2zm4.28.34l.53-2.59a1.75 1.75 0 0 0-1.49-.87c-1.33 0-2.37 1.42-2.37 3 0 1.09.51 1.61 1.33 1.61a2.85 2.85 0 0 0 2-1.15zm12.09.43A2.59 2.59 0 0 1 57 568l.7-3.13h-2.12l.16-.74h3l-.88 4a2.84 2.84 0 0 0 0 .38.8.8 0 0 0 .9.87 2.59 2.59 0 0 0 1.12-.32l.21.7a3.52 3.52 0 0 1-1.59.38 1.4 1.4 0 0 1-1.57-1.53zm.82-6.38a.84.84 0 0 1 .83-.83.62.62 0 0 1 .7.64.84.84 0 0 1-.84.83.63.63 0 0 1-.69-.64zm5.38 1.87h.74l-.14 1.19h.05a3.8 3.8 0 0 1 2.61-1.29 1.33 1.33 0 0 1 1.5 1.45 5.23 5.23 0 0 1-.11 1l-.72 3.56h-.92l.7-3.47a3.44 3.44 0 0 0 .1-.81.82.82 0 0 0-.92-.9 3.54 3.54 0 0 0-2.39 1.41l-.75 3.77H62zm8.2 4.51a2.59 2.59 0 0 1 .09-.64l.7-3.13H70l.16-.74h3l-.88 4a2.84 2.84 0 0 0 0 .38.8.8 0 0 0 .9.87 2.59 2.59 0 0 0 1.12-.32l.21.7a3.52 3.52 0 0 1-1.59.38 1.4 1.4 0 0 1-1.59-1.5zm.82-6.38a.84.84 0 0 1 .83-.83.62.62 0 0 1 .7.64.84.84 0 0 1-.84.83.63.63 0 0 1-.69-.64zm5.69 6.18a4.18 4.18 0 0 1 .1-.76l.57-2.81h-1.69l.14-.68 1.75-.06.5-1.87H80l-.39 1.87h2.88l-.16.74h-2.9l-.59 2.83a2.27 2.27 0 0 0-.06.54 1 1 0 0 0 1.08 1.1 3.29 3.29 0 0 0 1.51-.42l.3.65a3.93 3.93 0 0 1-2 .53 1.55 1.55 0 0 1-1.83-1.66zm7.89.2a2.59 2.59 0 0 1 .09-.64l.7-3.13h-2.14l.16-.74h3l-.87 4a2.84 2.84 0 0 0 0 .38.8.8 0 0 0 .9.87 2.59 2.59 0 0 0 1.12-.32l.21.7a3.52 3.52 0 0 1-1.59.38 1.4 1.4 0 0 1-1.58-1.5zm.82-6.38a.84.84 0 0 1 .83-.83.62.62 0 0 1 .7.64.84.84 0 0 1-.84.83.63.63 0 0 1-.69-.64zm4.45 5.61c0-2.09 1.43-3.88 3.2-3.88a2 2 0 0 1 1.79.87l.22-.73H97l-1.17 5.83h-.75l.09-.89a3.12 3.12 0 0 1-2.14 1c-1.28.03-2.03-.75-2.03-2.2zm4.28.34l.54-2.59a1.77 1.77 0 0 0-1.5-.87c-1.33 0-2.37 1.42-2.37 3 0 1.1.51 1.61 1.33 1.61a2.87 2.87 0 0 0 1.96-1.15zm4.59.35a2.66 2.66 0 0 1 .09-.65l1.21-5.75h-1.94l.15-.74h2.84l-1.36 6.52a2.46 2.46 0 0 0-.06.53.79.79 0 0 0 .89.87 2.34 2.34 0 0 0 1.13-.33l.23.71a3.61 3.61 0 0 1-1.62.38 1.44 1.44 0 0 1-1.56-1.54zm15.13-3.69h-1.68l.14-.68 1.69-.06.13-.65a2.39 2.39 0 0 1 2.53-2.2 2.64 2.64 0 0 1 1.69.58l-.44.59a2 2 0 0 0-1.23-.43 1.59 1.59 0 0 0-1.64 1.5l-.12.61h2.45l-.16.74h-2.46l-1 5.09h-.9zm6.73 3.77a2.59 2.59 0 0 1 .09-.64l.7-3.13h-2.14l.16-.74h3l-.87 4a1.81 1.81 0 0 0 0 .38.8.8 0 0 0 .9.87 2.59 2.59 0 0 0 1.12-.32l.21.7a3.52 3.52 0 0 1-1.59.38 1.4 1.4 0 0 1-1.58-1.5zm.82-6.38a.84.84 0 0 1 .83-.83.62.62 0 0 1 .7.64.84.84 0 0 1-.84.83.63.63 0 0 1-.69-.64zm6.12 6.3a2.66 2.66 0 0 1 .09-.65l1.21-5.75H128l.15-.74H131l-1.36 6.52a2.46 2.46 0 0 0-.06.53.78.78 0 0 0 .88.87 2.34 2.34 0 0 0 1.14-.33l.23.71a3.61 3.61 0 0 1-1.62.38 1.44 1.44 0 0 1-1.54-1.54zm5.62-.98a3.44 3.44 0 0 1 3.32-3.59 2.08 2.08 0 0 1 2.22 2.24 3.71 3.71 0 0 1-.15 1h-4.47a2.35 2.35 0 0 0 0 .27 1.66 1.66 0 0 0 1.75 1.83 3.21 3.21 0 0 0 2-.75l.35.62a4.14 4.14 0 0 1-2.52.86 2.29 2.29 0 0 1-2.5-2.48zm1.07-1h3.57a1.47 1.47 0 0 0 0-.36 1.34 1.34 0 0 0-1.41-1.47 2.5 2.5 0 0 0-2.16 1.8zm6.03 2.45l.53-.59a2.89 2.89 0 0 0 2.22.93c.82 0 1.42-.27 1.42-.92s-.57-.79-1.54-1.12c-1.21-.4-1.75-.89-1.75-1.7 0-1.11 1-1.65 2.18-1.65a3.42 3.42 0 0 1 2.44.94l-.52.57a3.07 3.07 0 0 0-2-.79c-.76 0-1.21.31-1.21.82s.5.78 1.43 1.11c1.1.37 1.85.75 1.85 1.7 0 1.26-1.09 1.76-2.46 1.76a3.57 3.57 0 0 1-2.59-1.06zm128.94-105.19h.89l-.41 5.43c-.06.72-.14 1.41-.18 1.64h.05c.08-.24.56-1.44.67-1.67l1.43-3.21h.79l.23 2.69c.05.55.13 1.6.14 2.14h.06c.05-.22.33-1.41.4-1.65l1.61-5.37h.88l-2.44 7.88h-1.15l-.22-3.19c0-.47-.07-1.13-.07-1.5H273c-.12.38-.34 1-.54 1.5l-1.37 3.19h-1.2zm8.4 2.05h.76l-.25 1.66a3.48 3.48 0 0 1 2.61-1.81 2 2 0 0 1 1.17.3l-.36.79a1.68 1.68 0 0 0-1-.25c-.9 0-1.83.85-2.64 2.1l-.61 3h-.91zm7.47 4.51a2.53 2.53 0 0 1 .09-.64l.7-3.13h-2.14l.16-.74h3l-.87 3.95a3.21 3.21 0 0 0-.05.39.79.79 0 0 0 .9.86 2.71 2.71 0 0 0 1.12-.31l.21.7a3.65 3.65 0 0 1-1.59.38 1.4 1.4 0 0 1-1.53-1.46zm.8-6.37a.84.84 0 0 1 .83-.83.62.62 0 0 1 .7.63.84.84 0 0 1-.84.83.63.63 0 0 1-.69-.63zm5.71 6.16a4.07 4.07 0 0 1 .1-.75l.57-2.81h-1.69l.13-.68 1.76-.06.5-1.87h.75l-.38 1.87h2.88l-.16.74h-2.88l-.58 2.83a2.22 2.22 0 0 0-.06.54 1 1 0 0 0 1.08 1.09 3.17 3.17 0 0 0 1.51-.42l.3.66a4 4 0 0 1-2.05.53 1.56 1.56 0 0 1-1.78-1.67zm6.05-.85a3.45 3.45 0 0 1 3.32-3.6 2.09 2.09 0 0 1 2.22 2.29 3.84 3.84 0 0 1-.15 1h-4.47a2.17 2.17 0 0 0 0 .26 1.66 1.66 0 0 0 1.75 1.84 3.22 3.22 0 0 0 2-.76l.35.63a4.2 4.2 0 0 1-2.52.86 2.29 2.29 0 0 1-2.5-2.52zm1.07-1h3.57a1.47 1.47 0 0 0 0-.36 1.34 1.34 0 0 0-1.41-1.48 2.5 2.5 0 0 0-2.16 1.81zm14.9-2.45h.76l-.26 1.66a3.48 3.48 0 0 1 2.61-1.81 2 2 0 0 1 1.17.3l-.36.79a1.68 1.68 0 0 0-1-.25c-.9 0-1.84.85-2.64 2.1l-.61 3h-.91zm5.63 3.45a3.45 3.45 0 0 1 3.32-3.6 2.09 2.09 0 0 1 2.22 2.29 3.84 3.84 0 0 1-.15 1h-4.47a2.17 2.17 0 0 0 0 .26 1.66 1.66 0 0 0 1.72 1.84 3.22 3.22 0 0 0 2-.76l.35.63a4.2 4.2 0 0 1-2.52.86 2.29 2.29 0 0 1-2.47-2.52zm1.07-1H325a1.47 1.47 0 0 0 0-.36 1.34 1.34 0 0 0-1.41-1.48 2.5 2.5 0 0 0-2.16 1.81zm6 1.29c0-2.09 1.42-3.89 3.2-3.89a2 2 0 0 1 1.79.88l.23-.73h.75l-1.17 5.83h-.75l.09-.89a3.19 3.19 0 0 1-2.14 1c-1.21.03-2-.75-2-2.2zm4.28.33l.54-2.59a1.76 1.76 0 0 0-1.5-.86c-1.33 0-2.37 1.42-2.37 3 0 1.11.51 1.61 1.33 1.61a2.83 2.83 0 0 0 2-1.16zm2.92-.33c0-2.09 1.42-3.89 3.2-3.89a2 2 0 0 1 1.76.85l.19-1.14.46-2.27h.92l-1.73 8.54h-.75l.09-.89a3.19 3.19 0 0 1-2.15 1c-1.2.03-1.99-.75-1.99-2.2zm4.28.33l.53-2.59a1.74 1.74 0 0 0-1.49-.86c-1.33 0-2.37 1.42-2.37 3 0 1.1.51 1.61 1.33 1.61a2.83 2.83 0 0 0 2-1.16zm3.46-4.07h.71l-.09.79a2 2 0 0 1 1.57-.94c.54 0 .85.29.87 1a2.16 2.16 0 0 1 1.63-1c.57 0 .92.33.92 1a2.93 2.93 0 0 1-.08.66l-.86 4.3h-.91l.84-4.18a2.92 2.92 0 0 0 .05-.45c0-.4-.15-.56-.41-.56-.42 0-.78.33-1.21 1l-.85 4.23h-.89l.86-4.18a2 2 0 0 0 .05-.45c0-.4-.17-.56-.42-.56-.44 0-.79.33-1.25 1l-.82 4.23h-.92zm6.79 3.45a3.45 3.45 0 0 1 3.32-3.6 2.09 2.09 0 0 1 2.22 2.29 3.77 3.77 0 0 1-.16 1h-4.46a2.17 2.17 0 0 0 0 .26 1.66 1.66 0 0 0 1.75 1.84 3.22 3.22 0 0 0 2-.76l.35.63a4.2 4.2 0 0 1-2.52.86 2.29 2.29 0 0 1-2.5-2.52zm1.07-1h3.57a2.2 2.2 0 0 0 0-.36 1.34 1.34 0 0 0-1.41-1.48 2.5 2.5 0 0 0-2.16 1.81zm13.2 1.29c0-2.09 1.42-3.89 3.2-3.89a2 2 0 0 1 1.76.85l.19-1.14.46-2.27h.96l-1.73 8.54h-.75l.09-.89h-.05a3.15 3.15 0 0 1-2.14 1c-1.2.03-1.99-.75-1.99-2.2zm4.28.33l.53-2.59a1.74 1.74 0 0 0-1.49-.86c-1.33 0-2.37 1.42-2.37 3 0 1.1.51 1.61 1.33 1.61a2.83 2.83 0 0 0 2-1.16zm3.05-.62a3.45 3.45 0 0 1 3.32-3.6 2.09 2.09 0 0 1 2.22 2.29 3.77 3.77 0 0 1-.16 1h-4.46a2.17 2.17 0 0 0 0 .26 1.66 1.66 0 0 0 1.75 1.84 3.22 3.22 0 0 0 2-.76l.35.63a4.2 4.2 0 0 1-2.52.86 2.29 2.29 0 0 1-2.5-2.52zm1.07-1h3.57a2.2 2.2 0 0 0 0-.36 1.34 1.34 0 0 0-1.41-1.48 2.5 2.5 0 0 0-2.16 1.81zm7.28 1.85a4.07 4.07 0 0 1 .1-.75l.57-2.81h-1.69l.13-.68 1.75-.06.51-1.87h.75l-.38 1.87h2.88l-.16.74h-2.88l-.58 2.83a2.22 2.22 0 0 0-.06.54 1 1 0 0 0 1.08 1.09 3.17 3.17 0 0 0 1.51-.42l.3.66a4 4 0 0 1-2.05.53 1.56 1.56 0 0 1-1.78-1.67zm5.89-.56c0-2.09 1.42-3.89 3.2-3.89a2 2 0 0 1 1.79.88l.23-.73h.78l-1.17 5.83h-.75l.09-.89a3.14 3.14 0 0 1-2.13 1c-1.22.03-2.04-.75-2.04-2.2zm4.28.33l.54-2.59a1.76 1.76 0 0 0-1.5-.86c-1.33 0-2.38 1.42-2.38 3 0 1.11.52 1.61 1.34 1.61a2.83 2.83 0 0 0 2.03-1.16zm4.91.44a2.56 2.56 0 0 1 .1-.64l.7-3.13h-2.14l.16-.74h3l-.87 3.95a2 2 0 0 0-.05.39.79.79 0 0 0 .9.86 2.67 2.67 0 0 0 1.11-.31l.22.7a3.66 3.66 0 0 1-1.6.38 1.4 1.4 0 0 1-1.53-1.46zM395 464a.83.83 0 0 1 .83-.83.61.61 0 0 1 .69.63.83.83 0 0 1-.84.83.62.62 0 0 1-.68-.63zm6.14 6.28a2.8 2.8 0 0 1 .09-.65l1.21-5.74h-1.95l.16-.74h2.84l-1.36 6.52a2.46 2.46 0 0 0-.06.53.78.78 0 0 0 .88.86 2.44 2.44 0 0 0 1.14-.32l.23.71a3.64 3.64 0 0 1-1.62.38 1.44 1.44 0 0 1-1.56-1.55zm5.52.48l.53-.59a2.9 2.9 0 0 0 2.22.94c.81 0 1.41-.28 1.41-.92s-.56-.8-1.53-1.12c-1.21-.41-1.75-.9-1.75-1.7 0-1.12 1-1.66 2.18-1.66a3.44 3.44 0 0 1 2.44 1l-.52.56a3.13 3.13 0 0 0-2-.79c-.75 0-1.21.31-1.21.83s.51.78 1.44 1.1c1.09.38 1.85.76 1.85 1.71 0 1.26-1.09 1.76-2.46 1.76a3.52 3.52 0 0 1-2.6-1.12zm10.85-140.23h1.07l1 7.87h-1l-.24-2.46h-2.83l-1.26 2.46h-1zm-1.61 4.69h2.38l-.13-1.34c-.08-.84-.16-1.73-.24-2.57h-.05l-1.27 2.54zm5.44 1.09c0-2.08 1.43-3.88 3.21-3.88a2 2 0 0 1 1.76.85l.19-1.14.45-2.28h.93l-1.73 8.54h-.76l.1-.89a3.11 3.11 0 0 1-2.15 1c-1.2.03-2-.75-2-2.2zm4.29.34l.52-2.59a1.71 1.71 0 0 0-1.48-.86c-1.34 0-2.38 1.41-2.38 3 0 1.09.52 1.61 1.33 1.61a2.87 2.87 0 0 0 2.01-1.16zm2.91-.34c0-2.08 1.43-3.88 3.21-3.88a2 2 0 0 1 1.76.85l.19-1.14.45-2.28h.93l-1.73 8.54h-.76l.1-.89h-.05a3.1 3.1 0 0 1-2.14 1 2 2 0 0 1-1.96-2.2zm4.29.34l.52-2.59a1.71 1.71 0 0 0-1.48-.86c-1.33 0-2.38 1.41-2.38 3 0 1.09.52 1.61 1.33 1.61a2.87 2.87 0 0 0 2.01-1.16zm10.94 1.02l-.22.73h-.77l1.71-8.54h.92l-.47 2.28-.31 1.28a3.38 3.38 0 0 1 2.13-1c1.23 0 2 .83 2 2.31 0 2.11-1.38 3.8-3.2 3.8a2.18 2.18 0 0 1-1.79-.86zm4-2.8c0-1.12-.52-1.67-1.35-1.67a2.93 2.93 0 0 0-2 1.12l-.53 2.62a1.73 1.73 0 0 0 1.5.84 2.66 2.66 0 0 0 2.42-2.91zm2.42 2.22a5.23 5.23 0 0 1 .11-1l.72-3.56h.91l-.69 3.47a4.12 4.12 0 0 0-.11.81.82.82 0 0 0 .92.9 3.45 3.45 0 0 0 2.38-1.41l.75-3.77h.92l-1.16 5.83h-.75l.15-1.19a3.84 3.84 0 0 1-2.59 1.33 1.33 1.33 0 0 1-1.56-1.41zm8.44-.21a4.24 4.24 0 0 1 .09-.76l.58-2.81h-1.69l.13-.68 1.75-.06.5-1.87h.76l-.38 1.87h2.87l-.15.74h-2.88l-.59 2.84a2.17 2.17 0 0 0-.06.54 1 1 0 0 0 1.08 1.09 3.25 3.25 0 0 0 1.51-.42l.3.66a4 4 0 0 1-2.05.52 1.55 1.55 0 0 1-1.77-1.66zm7.2 0a5.39 5.39 0 0 1 .09-.76l.58-2.81h-1.69l.13-.68 1.75-.06.5-1.87h.81l-.38 1.87h2.87l-.15.74h-2.88l-.59 2.84a2.17 2.17 0 0 0-.06.54 1 1 0 0 0 1.08 1.09 3.25 3.25 0 0 0 1.51-.42l.3.66a4 4 0 0 1-2 .52 1.55 1.55 0 0 1-1.87-1.66zm5.84-.88a3.46 3.46 0 0 1 3.36-3.56 2.33 2.33 0 0 1 2.43 2.55 3.46 3.46 0 0 1-3.34 3.56 2.34 2.34 0 0 1-2.45-2.55zm4.87-.95c0-1.14-.59-1.84-1.58-1.84a2.6 2.6 0 0 0-2.35 2.73c0 1.13.58 1.85 1.57 1.85a2.62 2.62 0 0 0 2.36-2.79zm3.38-2.48h.74l-.15 1.19h.05a3.82 3.82 0 0 1 2.62-1.33 1.33 1.33 0 0 1 1.5 1.45 5.23 5.23 0 0 1-.11 1l-.72 3.56h-.93l.7-3.47a3.49 3.49 0 0 0 .11-.81.82.82 0 0 0-.93-.9 3.53 3.53 0 0 0-2.38 1.41l-.76 3.77h-.91zm14.39 0h.76l-.1.9a3.33 3.33 0 0 1 2.16-1c1.21 0 2 .83 2 2.31 0 2.11-1.29 3.8-3.2 3.8a2.2 2.2 0 0 1-1.76-.84l-.22 1.25-.37 1.91h-.91zm3.9 2.3c0-1.12-.53-1.67-1.35-1.67a3 3 0 0 0-2 1.12l-.53 2.62a1.78 1.78 0 0 0 1.54.84c1.36 0 2.34-1.33 2.34-2.91zm2.33 1.44c0-2.08 1.43-3.88 3.21-3.88a2 2 0 0 1 1.78.87h.05l.23-.73h.74l-1.16 5.83h-.76l.1-.89h-.05a3.1 3.1 0 0 1-2.13 1 2 2 0 0 1-2.01-2.2zm4.29.34l.54-2.59a1.76 1.76 0 0 0-1.5-.86c-1.34 0-2.38 1.41-2.38 3 0 1.1.52 1.61 1.33 1.61a2.87 2.87 0 0 0 2.01-1.16zm4.17.23a4.24 4.24 0 0 1 .09-.76l.58-2.81H508l.13-.68 1.75-.06.5-1.87h.76l-.39 1.87h2.88l-.15.74h-2.88l-.59 2.84a2.17 2.17 0 0 0-.06.54 1 1 0 0 0 1.08 1.09 3.25 3.25 0 0 0 1.51-.42l.3.66a4 4 0 0 1-2.05.52 1.55 1.55 0 0 1-1.79-1.66zm7.23 0a4.24 4.24 0 0 1 .09-.76l.58-2.81h-1.69l.13-.68 1.75-.06.5-1.87h.76l-.38 1.87h2.87l-.15.74h-2.88l-.59 2.84a2.17 2.17 0 0 0-.06.54 1 1 0 0 0 1.08 1.09 3.25 3.25 0 0 0 1.51-.42l.3.66a4 4 0 0 1-2 .52 1.55 1.55 0 0 1-1.82-1.66zm6.05-.88a3.44 3.44 0 0 1 3.32-3.6 2.09 2.09 0 0 1 2.22 2.24 3.64 3.64 0 0 1-.16 1h-4.46a2.35 2.35 0 0 0 0 .27 1.65 1.65 0 0 0 1.75 1.83 3.21 3.21 0 0 0 2-.75l.35.62a4.14 4.14 0 0 1-2.52.86 2.29 2.29 0 0 1-2.5-2.47zm1.06-1h3.58a2.19 2.19 0 0 0 0-.36 1.33 1.33 0 0 0-1.4-1.47 2.5 2.5 0 0 0-2.18 1.83zm7.71-2.43h.75l-.25 1.67h.05a3.44 3.44 0 0 1 2.6-1.81 2.05 2.05 0 0 1 1.18.3l-.36.79a1.69 1.69 0 0 0-1-.25c-.89 0-1.83.85-2.63 2.1l-.62 3h-.91zm6.46 0h.75l-.15 1.19a3.82 3.82 0 0 1 2.62-1.33 1.33 1.33 0 0 1 1.5 1.45 5.23 5.23 0 0 1-.11 1l-.72 3.56h-.93l.7-3.47a3.49 3.49 0 0 0 .11-.81.83.83 0 0 0-.93-.9 3.51 3.51 0 0 0-2.38 1.41l-.76 3.77h-.91zm105.95 148.09h1.07l1 7.86h-1l-.24-2.45h-2.83l-1.26 2.45h-1zm-1.61 4.69h2.38l-.13-1.35c-.08-.84-.16-1.72-.24-2.56h-.05c-.44.86-.84 1.66-1.27 2.54zm5.44 1.09c0-2.09 1.43-3.89 3.21-3.89a2 2 0 0 1 1.76.85l.19-1.14.45-2.28h.93l-1.73 8.54h-.76l.1-.88h-.05a3.15 3.15 0 0 1-2.14 1 2 2 0 0 1-1.96-2.2zm4.29.33l.52-2.59a1.71 1.71 0 0 0-1.48-.86c-1.33 0-2.38 1.41-2.38 3 0 1.09.52 1.61 1.33 1.61a2.87 2.87 0 0 0 2.01-1.16zm2.91-.33c0-2.09 1.43-3.89 3.21-3.89a2 2 0 0 1 1.76.85l.19-1.14.45-2.28h.93l-1.73 8.54h-.76l.1-.88a3.15 3.15 0 0 1-2.14 1 2 2 0 0 1-2.01-2.2zm4.29.33l.52-2.59a1.71 1.71 0 0 0-1.48-.86c-1.33 0-2.38 1.41-2.38 3 0 1.09.52 1.61 1.33 1.61a2.87 2.87 0 0 0 2.01-1.16zm10.29-.67a3.5 3.5 0 0 1 3.52-3.55 2.72 2.72 0 0 1 2.19 1l-.58.53a2.07 2.07 0 0 0-1.73-.8A2.68 2.68 0 0 0 670 486a1.74 1.74 0 0 0 1.88 1.91 3 3 0 0 0 1.86-.8l.37.62a3.57 3.57 0 0 1-2.35.95 2.45 2.45 0 0 1-2.69-2.58zm7.02.34c0-2.09 1.43-3.89 3.21-3.89a2 2 0 0 1 1.78.88l.23-.73h.74l-1.16 5.82h-.76l.1-.88a3.14 3.14 0 0 1-2.13 1 2 2 0 0 1-2.01-2.2zm4.29.33l.54-2.59a1.76 1.76 0 0 0-1.5-.86c-1.34 0-2.38 1.41-2.38 3 0 1.11.52 1.61 1.33 1.61a2.87 2.87 0 0 0 2.01-1.16zm4.62-4.07h.75l-.25 1.66a3.46 3.46 0 0 1 2.6-1.81 2.05 2.05 0 0 1 1.18.3l-.36.79a1.68 1.68 0 0 0-1-.25c-.9 0-1.84.85-2.64 2.1l-.61 3h-.92zm5.49 3.74c0-2.09 1.43-3.89 3.21-3.89a2 2 0 0 1 1.76.85l.19-1.14.45-2.28h.93l-1.73 8.54h-.76l.1-.88a3.15 3.15 0 0 1-2.14 1 2 2 0 0 1-2.01-2.2zm4.29.33l.52-2.59a1.71 1.71 0 0 0-1.48-.86c-1.33 0-2.38 1.41-2.38 3 0 1.09.52 1.61 1.33 1.61a2.87 2.87 0 0 0 2.01-1.16zm11.09-4.07h.75l-.1.89a3.33 3.33 0 0 1 2.16-1c1.21 0 2 .83 2 2.32 0 2.11-1.29 3.8-3.2 3.8a2.23 2.23 0 0 1-1.76-.84l-.22 1.25-.37 1.9h-.91zm3.89 2.3c0-1.13-.52-1.68-1.35-1.68a2.93 2.93 0 0 0-2 1.13l-.53 2.61a1.78 1.78 0 0 0 1.54.84c1.36 0 2.34-1.33 2.34-2.9zm2.33 1.44c0-2.09 1.43-3.89 3.21-3.89a2 2 0 0 1 1.78.88l.23-.73h.74l-1.16 5.82h-.76l.1-.88a3.14 3.14 0 0 1-2.13 1 2 2 0 0 1-2.01-2.2zm4.29.33l.54-2.59a1.76 1.76 0 0 0-1.5-.86c-1.34 0-2.38 1.41-2.38 3 0 1.11.52 1.61 1.33 1.61a2.87 2.87 0 0 0 2.01-1.16zm4.2.23a4 4 0 0 1 .09-.75l.58-2.81h-1.69l.13-.69 1.75-.05.5-1.88h.76l-.38 1.88h2.87l-.15.74h-2.88l-.59 2.83a2.22 2.22 0 0 0-.06.54 1 1 0 0 0 1.08 1.09 3.14 3.14 0 0 0 1.51-.42l.3.66a4 4 0 0 1-2 .53 1.55 1.55 0 0 1-1.82-1.67zm7.2 0a5.1 5.1 0 0 1 .09-.75l.58-2.81h-1.69l.13-.69 1.75-.05.5-1.88h.76l-.38 1.88h2.87l-.15.74h-2.88l-.59 2.83a2.22 2.22 0 0 0-.06.54 1 1 0 0 0 1.08 1.09 3.14 3.14 0 0 0 1.51-.42l.3.66a4 4 0 0 1-2.05.53 1.55 1.55 0 0 1-1.77-1.67zm6.05-.85a3.44 3.44 0 0 1 3.32-3.6 2.09 2.09 0 0 1 2.22 2.24 3.79 3.79 0 0 1-.16 1h-4.46a2.17 2.17 0 0 0 0 .26 1.65 1.65 0 0 0 1.75 1.84 3.24 3.24 0 0 0 2-.76l.35.62a4.14 4.14 0 0 1-2.52.87 2.29 2.29 0 0 1-2.5-2.47zm1.06-1h3.58a2.19 2.19 0 0 0 0-.36 1.34 1.34 0 0 0-1.4-1.48 2.5 2.5 0 0 0-2.18 1.81zm7.71-2.45h.75l-.25 1.66a3.46 3.46 0 0 1 2.6-1.81 2.05 2.05 0 0 1 1.18.3l-.36.79a1.69 1.69 0 0 0-1-.25c-.89 0-1.83.85-2.63 2.1l-.62 3h-.91zm6.46 0h.75l-.15 1.18h.05a3.86 3.86 0 0 1 2.62-1.33 1.33 1.33 0 0 1 1.5 1.45 5 5 0 0 1-.11 1l-.72 3.56h-.92l.69-3.46a3.5 3.5 0 0 0 .11-.82.83.83 0 0 0-.92-.9 3.5 3.5 0 0 0-2.39 1.42l-.76 3.76h-.91zM447.72 80.27a3.07 3.07 0 0 1 .09-.76l1.42-6.71H447l.18-.87h3.32l-1.6 7.62a3.37 3.37 0 0 0-.07.62.92.92 0 0 0 1 1 2.81 2.81 0 0 0 1.33-.38l.27.82a4.14 4.14 0 0 1-1.89.45 1.67 1.67 0 0 1-1.82-1.79zm6.28-1.18a4 4 0 0 1 4-4.16 2.73 2.73 0 0 1 2.84 3 4 4 0 0 1-3.9 4.16 2.73 2.73 0 0 1-2.94-3zm5.72-1.09c0-1.33-.69-2.15-1.85-2.15a3 3 0 0 0-2.75 3.15c0 1.32.69 2.16 1.84 2.16a3.06 3.06 0 0 0 2.76-3.16zm3 1.07a4.1 4.1 0 0 1 4.11-4.14 3.16 3.16 0 0 1 2.56 1.22l-.69.61a2.37 2.37 0 0 0-2-.93 3.12 3.12 0 0 0-2.9 3.17 2 2 0 0 0 2.2 2.23 3.42 3.42 0 0 0 2.17-.94l.44.73a4.22 4.22 0 0 1-2.75 1.1 2.86 2.86 0 0 1-3.14-3.05zm8.19.4c0-2.44 1.67-4.54 3.74-4.54a2.35 2.35 0 0 1 2.09 1h.06l.26-.85h.87l-1.36 6.8h-.88l.11-1h-.05a3.67 3.67 0 0 1-2.5 1.2c-1.41-.01-2.34-.92-2.34-2.61zm5 .39l.63-3a2 2 0 0 0-1.75-1c-1.55 0-2.77 1.65-2.77 3.47 0 1.29.6 1.88 1.55 1.88a3.33 3.33 0 0 0 2.34-1.35zm5.41.41a3.07 3.07 0 0 1 .09-.76l1.42-6.71h-2.27l.18-.87h3.32l-1.6 7.62a3.37 3.37 0 0 0-.07.62.92.92 0 0 0 1 1 2.81 2.81 0 0 0 1.33-.38l.27.82a4.14 4.14 0 0 1-1.89.45 1.67 1.67 0 0 1-1.78-1.79zm15-1.2a4.1 4.1 0 0 1 4.11-4.14 3.16 3.16 0 0 1 2.57 1.22l-.69.61a2.37 2.37 0 0 0-2-.93A3.12 3.12 0 0 0 497.4 79a2 2 0 0 0 2.2 2.23 3.42 3.42 0 0 0 2.17-.94l.44.73a4.22 4.22 0 0 1-2.75 1.1 2.86 2.86 0 0 1-3.14-3.05zm8.11.02a4 4 0 0 1 3.92-4.16 2.73 2.73 0 0 1 2.84 3 4 4 0 0 1-3.9 4.16 2.73 2.73 0 0 1-2.86-3zm5.69-1.09c0-1.33-.69-2.15-1.85-2.15a3 3 0 0 0-2.75 3.15c0 1.32.69 2.16 1.84 2.16a3.06 3.06 0 0 0 2.76-3.16zm3.42-2.9h.83l-.1.92a2.39 2.39 0 0 1 1.84-1.09c.63 0 1 .33 1 1.11a2.47 2.47 0 0 1 1.91-1.11c.65 0 1.06.38 1.06 1.19a3.34 3.34 0 0 1-.08.77l-1 5h-1l1-4.89a3 3 0 0 0 .06-.53c0-.46-.17-.65-.48-.65-.49 0-.91.38-1.41 1.12l-1 4.93h-1l1-4.87a2.82 2.82 0 0 0 0-.53c0-.46-.19-.65-.49-.65-.52 0-.92.38-1.46 1.12l-1 4.93h-1.07zm8.91 0h.88l-.11 1.05a3.87 3.87 0 0 1 2.52-1.22c1.42 0 2.33 1 2.33 2.7 0 2.47-1.52 4.44-3.74 4.44a2.58 2.58 0 0 1-2.06-1l-.27 1.48-.43 2.23h-1.07zm4.55 2.69c0-1.32-.62-2-1.58-2a3.45 3.45 0 0 0-2.3 1.31l-.62 3.06a2.09 2.09 0 0 0 1.79 1c1.56.02 2.71-1.54 2.71-3.37zm2.77 2.59a6 6 0 0 1 .12-1.12l.84-4.16h1.07l-.8 4.05a4.8 4.8 0 0 0-.13.95 1 1 0 0 0 1.08 1.05 4 4 0 0 0 2.77-1.65l.88-4.4h1.08l-1.36 6.8h-.88l.18-1.38h-.05a4.53 4.53 0 0 1-3 1.55 1.55 1.55 0 0 1-1.8-1.69zm9.84-.25a5.69 5.69 0 0 1 .11-.89l.67-3.27h-2l.15-.8 2-.07.59-2.19h.88l-.45 2.19H545l-.18.87h-3.36l-.69 3.3a3.1 3.1 0 0 0-.07.63 1.15 1.15 0 0 0 1.3 1.28 3.78 3.78 0 0 0 1.77-.49l.35.77a4.7 4.7 0 0 1-2.4.61 1.81 1.81 0 0 1-2.11-1.94zm7.06-1a4 4 0 0 1 3.88-4.2 2.44 2.44 0 0 1 2.59 2.62 4.94 4.94 0 0 1-.18 1.22h-5.22a2.81 2.81 0 0 0 0 .3 1.94 1.94 0 0 0 2 2.15 3.77 3.77 0 0 0 2.32-.88l.41.72a4.82 4.82 0 0 1-2.94 1 2.67 2.67 0 0 1-2.86-2.93zm1.24-1.2h4.18a3 3 0 0 0 0-.42 1.56 1.56 0 0 0-1.64-1.73 2.91 2.91 0 0 0-2.54 2.15zm8.99-2.83h.88l-.29 1.9a4.05 4.05 0 0 1 3-2.11 2.34 2.34 0 0 1 1.38.35l-.42.92a2 2 0 0 0-1.14-.29c-1 0-2.14 1-3.08 2.45l-.71 3.54h-1.07zm6.45 5.73l.62-.69a3.36 3.36 0 0 0 2.59 1.09c1 0 1.65-.32 1.65-1.08s-.65-.92-1.79-1.3c-1.41-.48-2-1-2-2 0-1.3 1.16-1.93 2.54-1.93a4 4 0 0 1 2.81 1.08l-.6.65a3.65 3.65 0 0 0-2.36-.92c-.88 0-1.41.36-1.41 1s.59.91 1.68 1.28c1.27.44 2.16.89 2.16 2 0 1.47-1.28 2.06-2.87 2.06a4.15 4.15 0 0 1-3.02-1.24z"/><circle cx="169.26" cy="567.35" r="11.71" fill="#fff" stroke="#231f20" stroke-miterlimit="10" stroke-width="3"/><circle cx="250.39" cy="469.11" r="11.71" fill="#fff" stroke="#231f20" stroke-miterlimit="10" stroke-width="3"/><circle cx="169.26" cy="191.98" r="11.71" fill="#fff" stroke="#231f20" stroke-miterlimit="10" stroke-width="3"/><circle cx="169.26" cy="374.56" r="11.71" fill="#fff" stroke="#231f20" stroke-miterlimit="10" stroke-width="3"/><circle cx="391.49" cy="335.82" r="11.71" fill="#fff" stroke="#231f20" stroke-miterlimit="10" stroke-width="3"/><circle cx="616.86" cy="485.94" r="11.71" fill="#fff" stroke="#231f20" stroke-miterlimit="10" stroke-width="3"/><path fill="#231f20" d="M643.46 393.82h1.07l1 7.87h-1l-.24-2.46h-2.83l-1.26 2.46h-1zm-1.61 4.69h2.38l-.13-1.35c-.08-.84-.16-1.72-.24-2.56h-.05c-.44.86-.84 1.66-1.27 2.54zm5.44 1.09c0-2.09 1.43-3.89 3.21-3.89a2 2 0 0 1 1.76.85l.19-1.14.45-2.27h.93l-1.73 8.54h-.76l.1-.89h-.05a3.15 3.15 0 0 1-2.14 1 2 2 0 0 1-1.96-2.2zm4.29.33l.52-2.59a1.71 1.71 0 0 0-1.48-.86c-1.33 0-2.38 1.42-2.38 3 0 1.1.52 1.61 1.33 1.61a2.83 2.83 0 0 0 2.01-1.16zm2.91-.33c0-2.09 1.43-3.89 3.21-3.89a2 2 0 0 1 1.76.85l.19-1.14.45-2.27h.93l-1.73 8.54h-.76l.1-.89a3.15 3.15 0 0 1-2.14 1 2 2 0 0 1-2.01-2.2zm4.29.33l.52-2.59a1.71 1.71 0 0 0-1.48-.86c-1.33 0-2.38 1.42-2.38 3 0 1.1.52 1.61 1.33 1.61a2.83 2.83 0 0 0 2.01-1.16zm12.08.44a2.56 2.56 0 0 1 .1-.64l.69-3.13h-2.13l.15-.74h3.05l-.88 3.95a3 3 0 0 0 0 .39.79.79 0 0 0 .9.86 2.67 2.67 0 0 0 1.11-.31l.22.7a3.66 3.66 0 0 1-1.6.38 1.4 1.4 0 0 1-1.61-1.46zm.83-6.38a.83.83 0 0 1 .83-.83.61.61 0 0 1 .69.63.83.83 0 0 1-.84.83.62.62 0 0 1-.68-.62zm4.94 1.87h.71l-.08.79a2 2 0 0 1 1.57-.94c.54 0 .86.29.88 1a2.13 2.13 0 0 1 1.63-1c.56 0 .91.33.91 1a2.85 2.85 0 0 1-.07.66l-.86 4.3h-.91l.84-4.18a2.74 2.74 0 0 0 0-.45c0-.4-.14-.56-.4-.56-.42 0-.78.33-1.22 1l-.85 4.23H678l.87-4.18a2.92 2.92 0 0 0 0-.45c0-.4-.17-.56-.42-.56-.45 0-.79.33-1.25 1l-.83 4.23h-.91zm6.66 3.74c0-2.09 1.43-3.89 3.21-3.89a2 2 0 0 1 1.78.88h.05l.23-.73h.74l-1.16 5.83h-.76l.1-.89h-.05a3.14 3.14 0 0 1-2.13 1 2 2 0 0 1-2.01-2.2zm4.29.33l.54-2.59a1.76 1.76 0 0 0-1.5-.86c-1.33 0-2.38 1.42-2.38 3 0 1.11.52 1.61 1.33 1.61a2.83 2.83 0 0 0 2.01-1.16zm2.48 3.64l.43-.66a2.81 2.81 0 0 0 1.8.62 2 2 0 0 0 2.13-1.59l.26-1.24a3.1 3.1 0 0 1-2.07.94 1.94 1.94 0 0 1-2-2.19 3.51 3.51 0 0 1 3.17-3.74 2 2 0 0 1 1.78.88l.24-.73h.73l-1.25 6.14a2.77 2.77 0 0 1-3 2.3 3.49 3.49 0 0 1-2.22-.73zm4.72-3.73l.52-2.48a1.72 1.72 0 0 0-1.5-.88 2.66 2.66 0 0 0-2.32 2.83c0 1.06.5 1.56 1.35 1.56a2.82 2.82 0 0 0 1.95-1.03zm3.05-.53a3.44 3.44 0 0 1 3.32-3.6 2.09 2.09 0 0 1 2.22 2.25 3.77 3.77 0 0 1-.16 1h-4.46a2.17 2.17 0 0 0 0 .26 1.65 1.65 0 0 0 1.75 1.84 3.22 3.22 0 0 0 2-.76l.35.63a4.2 4.2 0 0 1-2.52.86 2.29 2.29 0 0 1-2.5-2.48zm1.06-1h3.58a2.19 2.19 0 0 0 0-.36 1.34 1.34 0 0 0-1.4-1.48 2.5 2.5 0 0 0-2.18 1.81zm13.38.95a3.5 3.5 0 0 1 3.52-3.55 2.7 2.7 0 0 1 2.19 1.05l-.59.52a2 2 0 0 0-1.72-.8 2.68 2.68 0 0 0-2.47 2.67 1.74 1.74 0 0 0 1.88 1.91 2.9 2.9 0 0 0 1.86-.8l.37.62a3.54 3.54 0 0 1-2.35.95 2.45 2.45 0 0 1-2.69-2.57zm7.02.34c0-2.09 1.43-3.89 3.21-3.89a2 2 0 0 1 1.78.88h.05l.23-.73h.74l-1.16 5.83h-.76l.1-.89h-.05a3.14 3.14 0 0 1-2.13 1 2 2 0 0 1-2.01-2.2zm4.29.33l.54-2.59a1.76 1.76 0 0 0-1.5-.86c-1.34 0-2.38 1.42-2.38 3 0 1.11.52 1.61 1.33 1.61a2.83 2.83 0 0 0 2.01-1.16zm4.62-4.07h.8l-.25 1.66a3.46 3.46 0 0 1 2.6-1.81 2.05 2.05 0 0 1 1.18.3l-.36.79a1.68 1.68 0 0 0-1-.25c-.9 0-1.84.85-2.64 2.1l-.61 3H727zm5.49 3.74c0-2.09 1.43-3.89 3.21-3.89a2 2 0 0 1 1.76.85l.2-1.14.45-2.27h.93l-1.73 8.54h-.76l.1-.89a3.15 3.15 0 0 1-2.15 1c-1.22.03-2.01-.75-2.01-2.2zm4.28.33l.53-2.59a1.71 1.71 0 0 0-1.48-.86c-1.34 0-2.38 1.42-2.38 3 0 1.1.52 1.61 1.33 1.61a2.8 2.8 0 0 0 2.03-1.16z"/><circle cx="616.86" cy="399.11" r="11.71" fill="#fff" stroke="#231f20" stroke-miterlimit="10" stroke-width="3"/><path fill="#231f20" d="M643.46 304.33h1.07l1 7.87h-1l-.24-2.46h-2.83l-1.26 2.46h-1zm-1.61 4.67h2.38l-.13-1.34c-.08-.84-.16-1.73-.24-2.57h-.05c-.44.86-.84 1.67-1.27 2.54zm5.44 1.11c0-2.08 1.43-3.88 3.21-3.88a2 2 0 0 1 1.76.85l.19-1.14.45-2.28h.93l-1.73 8.54h-.76l.1-.89h-.05a3.1 3.1 0 0 1-2.14 1 2 2 0 0 1-1.96-2.2zm4.29.34l.52-2.59a1.72 1.72 0 0 0-1.48-.87c-1.33 0-2.38 1.42-2.38 3 0 1.09.52 1.61 1.33 1.61a2.87 2.87 0 0 0 2.01-1.15zm2.91-.34c0-2.08 1.43-3.88 3.21-3.88a2 2 0 0 1 1.76.85l.19-1.14.45-2.28h.93l-1.73 8.54h-.76l.1-.89a3.1 3.1 0 0 1-2.14 1 2 2 0 0 1-2.01-2.2zm4.29.34l.52-2.59a1.72 1.72 0 0 0-1.48-.87c-1.33 0-2.38 1.42-2.38 3 0 1.09.52 1.61 1.33 1.61a2.87 2.87 0 0 0 2.01-1.15zm12.08.43a2.64 2.64 0 0 1 .1-.64l.69-3.13h-2.13l.15-.74h3.05l-.88 4a2.73 2.73 0 0 0 0 .38.8.8 0 0 0 .9.87 2.55 2.55 0 0 0 1.11-.32l.22.7a3.53 3.53 0 0 1-1.6.38 1.4 1.4 0 0 1-1.61-1.5zm.83-6.38a.83.83 0 0 1 .83-.83.61.61 0 0 1 .69.64.83.83 0 0 1-.84.83.62.62 0 0 1-.68-.64zm4.58 5.28a3.5 3.5 0 0 1 3.52-3.55 2.72 2.72 0 0 1 2.19 1l-.58.53a2.08 2.08 0 0 0-1.73-.81 2.68 2.68 0 0 0-2.47 2.68 1.75 1.75 0 0 0 1.88 1.91 2.91 2.91 0 0 0 1.86-.81l.37.63a3.56 3.56 0 0 1-2.35.94 2.44 2.44 0 0 1-2.69-2.52zm6.95.01a3.46 3.46 0 0 1 3.36-3.56 2.33 2.33 0 0 1 2.43 2.55 3.46 3.46 0 0 1-3.34 3.56 2.34 2.34 0 0 1-2.45-2.55zm4.87-1c0-1.14-.59-1.85-1.58-1.85a2.61 2.61 0 0 0-2.35 2.74c0 1.13.59 1.85 1.57 1.85a2.62 2.62 0 0 0 2.36-2.69zm3.38-2.42h.74l-.14 1.19a3.82 3.82 0 0 1 2.62-1.33 1.33 1.33 0 0 1 1.5 1.45 5.23 5.23 0 0 1-.11 1l-.72 3.56h-.92l.69-3.47a3.49 3.49 0 0 0 .11-.81.82.82 0 0 0-.92-.9 3.52 3.52 0 0 0-2.39 1.41l-.76 3.77h-.91zm13.6 3.41a3.5 3.5 0 0 1 3.52-3.55 2.72 2.72 0 0 1 2.19 1l-.59.53a2 2 0 0 0-1.72-.81 2.68 2.68 0 0 0-2.47 2.68 1.75 1.75 0 0 0 1.88 1.91 2.91 2.91 0 0 0 1.86-.81l.37.63a3.56 3.56 0 0 1-2.35.94 2.44 2.44 0 0 1-2.69-2.52zm7.02.33c0-2.08 1.43-3.88 3.21-3.88a2 2 0 0 1 1.78.87l.23-.73h.74l-1.16 5.83h-.76l.1-.89a3.1 3.1 0 0 1-2.13 1 2 2 0 0 1-2.01-2.2zm4.29.34l.54-2.59a1.77 1.77 0 0 0-1.5-.87c-1.34 0-2.38 1.42-2.38 3 0 1.1.52 1.61 1.33 1.61a2.87 2.87 0 0 0 2.01-1.15zm4.62-4.08h.75l-.25 1.63a3.44 3.44 0 0 1 2.6-1.81 2 2 0 0 1 1.18.3l-.36.79a1.68 1.68 0 0 0-1-.25c-.9 0-1.84.85-2.64 2.1l-.61 3h-.92zm5.49 3.74c0-2.08 1.43-3.88 3.21-3.88a2 2 0 0 1 1.76.85l.19-1.14.45-2.28h.93l-1.73 8.54h-.76l.1-.89a3.11 3.11 0 0 1-2.15 1c-1.2.03-2-.75-2-2.2zm4.29.34l.52-2.59a1.72 1.72 0 0 0-1.48-.87c-1.34 0-2.38 1.42-2.38 3 0 1.09.52 1.61 1.33 1.61a2.87 2.87 0 0 0 2.01-1.15z"/><circle cx="616.86" cy="309.62" r="11.71" fill="#fff" stroke="#231f20" stroke-miterlimit="10" stroke-width="3"/><path fill="#231f20" d="M642 214.85h4.79l-.17.78h-3.85l-.54 2.73h3.21l-.17.79h-3.19l-.72 3.56h-.93zm7.26 6.54a2.56 2.56 0 0 1 .1-.63l.69-3.13h-2.13l.15-.75h3l-.87 4a2 2 0 0 0 0 .39.79.79 0 0 0 .9.86 2.67 2.67 0 0 0 1.11-.31l.22.69a3.53 3.53 0 0 1-1.6.39 1.41 1.41 0 0 1-1.57-1.51zm.83-6.38a.83.83 0 0 1 .83-.82.61.61 0 0 1 .69.63.83.83 0 0 1-.84.83.62.62 0 0 1-.68-.65zm6.71 4.67l-1.5-2.8h1l.69 1.34c0 .09.43.88.47 1h.05c.06-.09.72-.91.78-1l1.19-1.34h1.08l-2.68 2.88 1.67 3h-1l-.76-1.4c0-.1-.47-.89-.53-1h-.06c-.09.13-.72.85-.8 1l-1.3 1.45H654zm12.92 2.32l-.22.73h-.77l1.71-8.54h.92l-.47 2.28-.31 1.29a3.39 3.39 0 0 1 2.13-1c1.23 0 2 .83 2 2.32 0 2.11-1.38 3.8-3.2 3.8a2.16 2.16 0 0 1-1.79-.88zm4-2.79c0-1.13-.52-1.68-1.35-1.68a2.91 2.91 0 0 0-2 1.13l-.53 2.61a1.73 1.73 0 0 0 1.5.84 2.65 2.65 0 0 0 2.42-2.92zm2.42 2.2a5 5 0 0 1 .11-1l.72-3.57h.91l-.69 3.47a4.12 4.12 0 0 0-.11.82.82.82 0 0 0 .92.9 3.47 3.47 0 0 0 2.38-1.42l.75-3.77h.92l-1.16 5.83h-.75l.15-1.18a3.88 3.88 0 0 1-2.59 1.33 1.33 1.33 0 0 1-1.56-1.41zm6.72 3.19l.43-.66a2.87 2.87 0 0 0 1.8.62 2 2 0 0 0 2.13-1.59l.26-1.24h-.05a3.1 3.1 0 0 1-2.07.94 2 2 0 0 1-2-2.19 3.51 3.51 0 0 1 3.17-3.74 2 2 0 0 1 1.78.88h.05l.24-.74h.73l-1.25 6.12a2.78 2.78 0 0 1-3 2.31 3.49 3.49 0 0 1-2.22-.71zm4.72-3.73l.52-2.49a1.73 1.73 0 0 0-1.5-.87 2.66 2.66 0 0 0-2.32 2.83c0 1 .5 1.56 1.35 1.56a2.82 2.82 0 0 0 1.95-1.03zm12.08.52a2.56 2.56 0 0 1 .1-.63l.69-3.13h-2.13l.15-.75h3l-.88 4a3 3 0 0 0 0 .39.79.79 0 0 0 .9.86 2.67 2.67 0 0 0 1.11-.31l.22.69a3.57 3.57 0 0 1-1.6.39 1.41 1.41 0 0 1-1.56-1.51zm.83-6.38a.83.83 0 0 1 .83-.82.61.61 0 0 1 .69.63.83.83 0 0 1-.84.83.62.62 0 0 1-.68-.65zm5.38 1.87h.74l-.15 1.19a3.86 3.86 0 0 1 2.62-1.33 1.33 1.33 0 0 1 1.5 1.45 5 5 0 0 1-.11 1l-.72 3.56h-.92l.69-3.46a3.5 3.5 0 0 0 .11-.82.83.83 0 0 0-.93-.9 3.51 3.51 0 0 0-2.38 1.42l-.76 3.76h-.91zm13.72 2.8c0-2.47 1.63-5 4.07-5a2.16 2.16 0 0 1 1.94 1.17l-.66.49a1.49 1.49 0 0 0-1.33-.85c-1.87 0-3.06 2.18-3.06 4.09 0 1.42.6 2.45 2 2.45a2.57 2.57 0 0 0 1.66-.7l.43.6a3.41 3.41 0 0 1-2.26.91c-1.79.02-2.79-1.28-2.79-3.16zm6.72 1.76l.64-.51a2.34 2.34 0 0 0 2 1.12 1.54 1.54 0 0 0 1.73-1.46c0-.6-.39-1-1-1.32l-.92-.54a2.25 2.25 0 0 1-1.27-1.92 2.21 2.21 0 0 1 2.51-2.11 2.88 2.88 0 0 1 2.33 1.17l-.62.51a2.23 2.23 0 0 0-1.75-.89 1.33 1.33 0 0 0-1.42 1.25 1.48 1.48 0 0 0 .92 1.25l.95.56a2.24 2.24 0 0 1 1.28 2 2.4 2.4 0 0 1-2.67 2.35 3 3 0 0 1-2.71-1.46zm7.2 0l.64-.51a2.34 2.34 0 0 0 2.05 1.12 1.54 1.54 0 0 0 1.73-1.46c0-.6-.39-1-1-1.32l-.92-.54a2.25 2.25 0 0 1-1.27-1.92 2.21 2.21 0 0 1 2.41-2.11 2.88 2.88 0 0 1 2.33 1.17l-.62.51a2.24 2.24 0 0 0-1.76-.89 1.32 1.32 0 0 0-1.41 1.25 1.48 1.48 0 0 0 .92 1.25l1 .56a2.24 2.24 0 0 1 1.28 2 2.4 2.4 0 0 1-2.67 2.35 3 3 0 0 1-2.71-1.46z"/><circle cx="616.86" cy="220.13" r="11.71" fill="#fff" stroke="#231f20" stroke-miterlimit="10" stroke-width="3"/><path fill="#231f20" d="M414 285.06l.64-.51a2.34 2.34 0 0 0 2 1.12 1.54 1.54 0 0 0 1.73-1.46c0-.6-.39-1-1-1.32l-.91-.54a2.24 2.24 0 0 1-1.28-1.92 2.21 2.21 0 0 1 2.41-2.11 2.88 2.88 0 0 1 2.33 1.17l-.62.51a2.23 2.23 0 0 0-1.75-.89 1.33 1.33 0 0 0-1.42 1.25 1.48 1.48 0 0 0 .92 1.25l1 .56a2.23 2.23 0 0 1 1.29 2 2.41 2.41 0 0 1-2.68 2.35 3 3 0 0 1-2.66-1.46zm8.63-.25a5.1 5.1 0 0 1 .09-.75l.58-2.81h-1.69l.13-.69 1.75-.05.51-1.88h.75l-.38 1.88h2.88l-.16.74h-2.88l-.59 2.83a2.78 2.78 0 0 0-.06.54 1 1 0 0 0 1.08 1.09 3.14 3.14 0 0 0 1.51-.42l.3.66a4 4 0 0 1-2.05.53 1.55 1.55 0 0 1-1.77-1.67zm4.76 3.81l.29-.65a1.68 1.68 0 0 0 .7.16c.72 0 1.11-.32 1.68-1.2l.36-.57-1.42-5.85h.89l.77 3.26c.11.51.25 1.24.35 1.77.28-.53.69-1.26 1-1.77l1.95-3.26h1l-4 6.45c-.78 1.28-1.44 1.88-2.62 1.88a1.73 1.73 0 0 1-.95-.22zm10.07-3.69a2.73 2.73 0 0 1 .08-.65l1.21-5.74h-1.94l.16-.75h2.84l-1.37 6.53a3.31 3.31 0 0 0-.06.53.78.78 0 0 0 .89.86 2.47 2.47 0 0 0 1.14-.32l.23.7a3.55 3.55 0 0 1-1.62.39 1.44 1.44 0 0 1-1.56-1.55zm5.62-.93a3.44 3.44 0 0 1 3.32-3.6 2.08 2.08 0 0 1 2.22 2.24 3.79 3.79 0 0 1-.16 1H444a2.17 2.17 0 0 0 0 .26 1.65 1.65 0 0 0 1.75 1.84 3.22 3.22 0 0 0 2-.76l.35.62a4.14 4.14 0 0 1-2.52.87 2.29 2.29 0 0 1-2.5-2.47zm1.06-1h3.58a2.19 2.19 0 0 0 0-.36 1.34 1.34 0 0 0-1.4-1.48 2.5 2.5 0 0 0-2.18 1.77zm13.13.92a3.46 3.46 0 0 1 3.36-3.56 2.34 2.34 0 0 1 2.43 2.56 3.46 3.46 0 0 1-3.34 3.56 2.35 2.35 0 0 1-2.45-2.56zm4.87-.94c0-1.14-.59-1.85-1.58-1.85a2.6 2.6 0 0 0-2.35 2.73c0 1.13.58 1.85 1.57 1.85a2.61 2.61 0 0 0 2.36-2.71zm4.11-2.47h.75l-.25 1.66h.05a3.46 3.46 0 0 1 2.6-1.81 2.05 2.05 0 0 1 1.18.3l-.36.79a1.68 1.68 0 0 0-1-.25c-.9 0-1.84.85-2.64 2.1l-.61 3h-.92zm5.49 3.74c0-2.09 1.43-3.89 3.21-3.89a2 2 0 0 1 1.78.88l.23-.73h.74l-1.16 5.82h-.76l.1-.88h-.05a3.14 3.14 0 0 1-2.13 1 2 2 0 0 1-1.96-2.2zm4.29.33l.53-2.59a1.73 1.73 0 0 0-1.49-.86c-1.34 0-2.38 1.41-2.38 3 0 1.11.52 1.61 1.33 1.61a2.87 2.87 0 0 0 1.98-1.16zm3.89-4.07h.74l-.15 1.18h.05a3.86 3.86 0 0 1 2.62-1.33 1.33 1.33 0 0 1 1.5 1.45 5 5 0 0 1-.11 1l-.72 3.56h-.93l.7-3.46a3.5 3.5 0 0 0 .11-.82.83.83 0 0 0-.93-.9 3.51 3.51 0 0 0-2.38 1.42l-.76 3.76h-.91zm5.79 7.71l.43-.66a2.79 2.79 0 0 0 1.8.62 2 2 0 0 0 2.13-1.59l.26-1.24h-.05a3.1 3.1 0 0 1-2.07.94 2 2 0 0 1-2-2.19 3.51 3.51 0 0 1 3.17-3.74 2 2 0 0 1 1.78.88h.05l.24-.73h.73l-1.22 6.12a2.77 2.77 0 0 1-3 2.31 3.49 3.49 0 0 1-2.25-.72zm4.71-3.73L491 282a1.74 1.74 0 0 0-1.5-.87 2.66 2.66 0 0 0-2.32 2.83c0 1.05.5 1.56 1.35 1.56a2.78 2.78 0 0 0 1.89-1.03zm3.06-.49a3.44 3.44 0 0 1 3.32-3.6 2.09 2.09 0 0 1 2.2 2.2 3.79 3.79 0 0 1-.16 1h-4.44a2.17 2.17 0 0 0 0 .26 1.65 1.65 0 0 0 1.75 1.84 3.22 3.22 0 0 0 2-.76l.35.62a4.14 4.14 0 0 1-2.52.87 2.29 2.29 0 0 1-2.5-2.43zm1.06-1h3.58a2.19 2.19 0 0 0 0-.36 1.34 1.34 0 0 0-1.4-1.48 2.5 2.5 0 0 0-2.18 1.77zm14.03 2.6l-.21.73h-.77l1.7-8.54h.93l-.47 2.28-.31 1.29a3.39 3.39 0 0 1 2.13-1c1.23 0 2 .83 2 2.32 0 2.11-1.38 3.8-3.2 3.8a2.16 2.16 0 0 1-1.8-.88zm4-2.79c0-1.13-.53-1.68-1.35-1.68a2.91 2.91 0 0 0-2 1.13l-.53 2.61a1.73 1.73 0 0 0 1.5.84 2.66 2.66 0 0 0 2.42-2.9zM515 285a5 5 0 0 1 .11-1l.72-3.56h.91L516 284a4.07 4.07 0 0 0-.1.82.82.82 0 0 0 .92.9 3.43 3.43 0 0 0 2.37-1.42l.76-3.76h.92l-1.16 5.82H519l.16-1.18a3.9 3.9 0 0 1-2.59 1.33A1.33 1.33 0 0 1 515 285zm8.43-.19a4 4 0 0 1 .09-.75l.58-2.81h-1.69l.13-.69 1.75-.05.5-1.88h.76l-.38 1.88H528l-.15.74H525l-.59 2.83a2.17 2.17 0 0 0-.06.54 1 1 0 0 0 1.08 1.09 3.14 3.14 0 0 0 1.51-.42l.3.66a4 4 0 0 1-2 .53 1.55 1.55 0 0 1-1.81-1.67zm7.2 0a4 4 0 0 1 .09-.75l.58-2.81h-1.69l.13-.69 1.75-.05.5-1.88h.76l-.38 1.88h2.87l-.15.74h-2.88l-.59 2.83a2.17 2.17 0 0 0-.06.54 1 1 0 0 0 1.08 1.09 3.14 3.14 0 0 0 1.51-.42l.3.66a4 4 0 0 1-2.05.53 1.55 1.55 0 0 1-1.77-1.67zm5.84-.89a3.46 3.46 0 0 1 3.36-3.56 2.34 2.34 0 0 1 2.43 2.56 3.46 3.46 0 0 1-3.34 3.56 2.35 2.35 0 0 1-2.45-2.56zm4.87-.94c0-1.14-.59-1.85-1.58-1.85a2.6 2.6 0 0 0-2.35 2.73c0 1.13.58 1.85 1.57 1.85a2.61 2.61 0 0 0 2.36-2.71zm3.37-2.47h.75l-.15 1.18h.05a3.86 3.86 0 0 1 2.62-1.33 1.33 1.33 0 0 1 1.5 1.45 5 5 0 0 1-.11 1l-.72 3.56h-.93l.7-3.46a3.5 3.5 0 0 0 .11-.82.83.83 0 0 0-.93-.9 3.51 3.51 0 0 0-2.38 1.42l-.76 3.76h-.91z"/><circle cx="391.49" cy="283.75" r="11.71" fill="#fff" stroke="#231f20" stroke-miterlimit="10" stroke-width="3"/><path fill="#231f20" d="M414 233l.64-.52a2.35 2.35 0 0 0 2 1.13 1.54 1.54 0 0 0 1.73-1.46c0-.6-.39-1-1-1.32l-.91-.54a2.25 2.25 0 0 1-1.28-1.92 2.21 2.21 0 0 1 2.41-2.11 2.88 2.88 0 0 1 2.33 1.16l-.62.52a2.23 2.23 0 0 0-1.75-.89 1.33 1.33 0 0 0-1.42 1.25 1.46 1.46 0 0 0 .92 1.24l1 .57a2.2 2.2 0 0 1 1.29 1.95 2.41 2.41 0 0 1-2.68 2.35A3 3 0 0 1 414 233zm8.63-.25a5.23 5.23 0 0 1 .09-.76l.58-2.81h-1.69l.13-.68 1.75-.06.51-1.87h.75l-.38 1.87h2.88l-.16.74h-2.88l-.59 2.83a3 3 0 0 0-.06.54 1 1 0 0 0 1.08 1.09 3.14 3.14 0 0 0 1.51-.42l.3.66a3.88 3.88 0 0 1-2.05.53 1.55 1.55 0 0 1-1.77-1.66zm4.76 3.81l.29-.66a1.54 1.54 0 0 0 .7.17c.72 0 1.11-.33 1.68-1.2l.36-.58-1.42-5.85h.89l.77 3.26c.11.52.25 1.25.35 1.78.28-.53.69-1.26 1-1.78l1.95-3.26h1l-4 6.45c-.78 1.28-1.44 1.88-2.62 1.88a1.83 1.83 0 0 1-.95-.21zm10.07-3.7a2.6 2.6 0 0 1 .08-.64l1.21-5.75h-1.94l.16-.74h2.84l-1.37 6.52a3.31 3.31 0 0 0-.06.53.78.78 0 0 0 .89.86 2.35 2.35 0 0 0 1.14-.32l.23.71a3.67 3.67 0 0 1-1.62.38 1.44 1.44 0 0 1-1.56-1.55zm5.62-.97a3.43 3.43 0 0 1 3.32-3.59 2.08 2.08 0 0 1 2.22 2.24 3.64 3.64 0 0 1-.16 1H444a2.35 2.35 0 0 0 0 .27 1.65 1.65 0 0 0 1.75 1.83 3.16 3.16 0 0 0 2-.76l.35.63a4.14 4.14 0 0 1-2.52.86 2.29 2.29 0 0 1-2.5-2.48zm1.06-1h3.58a2.19 2.19 0 0 0 0-.36 1.33 1.33 0 0 0-1.4-1.47 2.49 2.49 0 0 0-2.18 1.8zm12.77 5.26l.43-.66a2.82 2.82 0 0 0 1.8.63 2 2 0 0 0 2.13-1.6l.26-1.24a3.06 3.06 0 0 1-2.07.94 1.94 1.94 0 0 1-2-2.18 3.51 3.51 0 0 1 3.17-3.74 2 2 0 0 1 1.78.87h.05l.24-.73h.73l-1.22 6.13a2.77 2.77 0 0 1-3 2.3 3.49 3.49 0 0 1-2.3-.72zm4.71-3.73l.53-2.48a1.74 1.74 0 0 0-1.5-.88 2.66 2.66 0 0 0-2.32 2.83c0 1.06.5 1.56 1.35 1.56a2.78 2.78 0 0 0 1.94-1.03zm4.63-3.98h.75l-.25 1.67h.05a3.44 3.44 0 0 1 2.6-1.81 2 2 0 0 1 1.18.3l-.36.79a1.61 1.61 0 0 0-1-.26c-.9 0-1.84.86-2.64 2.1l-.61 3h-.92zm5.63 3.45a3.43 3.43 0 0 1 3.32-3.59 2.08 2.08 0 0 1 2.22 2.24 3.64 3.64 0 0 1-.16 1h-4.46a2.35 2.35 0 0 0 0 .27 1.65 1.65 0 0 0 1.75 1.83 3.16 3.16 0 0 0 2-.76l.35.63a4.14 4.14 0 0 1-2.52.86 2.29 2.29 0 0 1-2.5-2.48zm1.06-1h3.58a2.19 2.19 0 0 0 0-.36 1.33 1.33 0 0 0-1.4-1.47 2.49 2.49 0 0 0-2.18 1.8zm6.14 1a3.43 3.43 0 0 1 3.32-3.59 2.08 2.08 0 0 1 2.22 2.24 3.64 3.64 0 0 1-.16 1H480a2.35 2.35 0 0 0 0 .27 1.65 1.65 0 0 0 1.75 1.83 3.18 3.18 0 0 0 2-.76l.35.63a4.14 4.14 0 0 1-2.52.86 2.29 2.29 0 0 1-2.5-2.48zm1.06-1h3.58a2.19 2.19 0 0 0 0-.36 1.33 1.33 0 0 0-1.4-1.47 2.49 2.49 0 0 0-2.18 1.8zm6.97-2.45h.75l-.15 1.19h.05a3.82 3.82 0 0 1 2.62-1.33 1.33 1.33 0 0 1 1.5 1.45 5.23 5.23 0 0 1-.11 1l-.72 3.56h-.93l.7-3.47a3.49 3.49 0 0 0 .11-.81.83.83 0 0 0-.93-.9 3.49 3.49 0 0 0-2.38 1.41l-.76 3.77H486zm14.26 5.1l-.21.73h-.77l1.7-8.54h.91l-.47 2.28-.31 1.28a3.38 3.38 0 0 1 2.13-1c1.23 0 2 .82 2 2.31 0 2.11-1.38 3.8-3.2 3.8a2.18 2.18 0 0 1-1.78-.86zm4-2.8c0-1.13-.53-1.68-1.35-1.68a2.91 2.91 0 0 0-2 1.13l-.53 2.61a1.71 1.71 0 0 0 1.5.84 2.65 2.65 0 0 0 2.42-2.9zm2.42 2.26a5.13 5.13 0 0 1 .11-1l.72-3.56h.91l-.7 3.47a4.07 4.07 0 0 0-.1.81.82.82 0 0 0 .92.9 3.45 3.45 0 0 0 2.37-1.41l.76-3.77h.92l-1.16 5.83h-.76l.16-1.19h-.05a3.9 3.9 0 0 1-2.59 1.33 1.33 1.33 0 0 1-1.51-1.41zm8.44-.25a4.13 4.13 0 0 1 .09-.76l.58-2.81h-1.69l.13-.68 1.75-.06.5-1.87h.76l-.38 1.87h2.87l-.15.74h-2.88l-.59 2.83a2.27 2.27 0 0 0-.06.54 1 1 0 0 0 1.08 1.09 3.14 3.14 0 0 0 1.51-.42l.3.66a3.88 3.88 0 0 1-2 .53 1.55 1.55 0 0 1-1.82-1.66zm7.2 0a4.13 4.13 0 0 1 .09-.76l.58-2.81h-1.69l.13-.68 1.75-.06.5-1.87h.76l-.38 1.87H528l-.15.74H525l-.59 2.83a2.27 2.27 0 0 0-.06.54 1 1 0 0 0 1.08 1.09 3.14 3.14 0 0 0 1.51-.42l.3.66a3.88 3.88 0 0 1-2 .53 1.55 1.55 0 0 1-1.81-1.66zm5.84-.89a3.46 3.46 0 0 1 3.36-3.56 2.33 2.33 0 0 1 2.43 2.55 3.46 3.46 0 0 1-3.34 3.56 2.34 2.34 0 0 1-2.45-2.55zm4.87-1c0-1.14-.59-1.85-1.58-1.85a2.61 2.61 0 0 0-2.35 2.74c0 1.12.58 1.84 1.57 1.84a2.61 2.61 0 0 0 2.36-2.68zm3.37-2.42h.75l-.15 1.19a3.82 3.82 0 0 1 2.62-1.33 1.33 1.33 0 0 1 1.5 1.45 5.23 5.23 0 0 1-.11 1l-.72 3.56h-.93l.7-3.47a3.49 3.49 0 0 0 .11-.81.83.83 0 0 0-.93-.9 3.47 3.47 0 0 0-2.35 1.37l-.76 3.77h-.91z"/><circle cx="391.49" cy="231.69" r="11.71" fill="#fff" stroke="#231f20" stroke-miterlimit="10" stroke-width="3"/><path fill="#4a80c2" d="M402.74 208c0 .53-.38.91-1.06 1.12l-1.22-.58h-.35l-.41-.32h-.52l-.38-.64-.32-.16-.42-.73-.57-.61v-.26l-.26-.22-.06-.51-.42-.39-.67-1.5-.29-.35-.13-.9-.41-.54-.67-.1-.74.42-.16-.16-.51.32-.16-.35a2.88 2.88 0 0 1-.48 0 3 3 0 0 1-.51 0h-.26l-.67.35-.74-.1h-.13l-.51.29-.41-.16a2.25 2.25 0 0 1-.9-.13h-.16l-.83.39-.32-.36-.58-.16-.13.1c-.47.62-.81 1.06-1 1.31l-.51.13a7.9 7.9 0 0 1-1.54 1.89h-.13l-1 1.25h-.2l-.64 1-1.21.67a3.27 3.27 0 0 1-.52.07 1.8 1.8 0 0 1-1.15-.45l.39-.8v-.48l.12-.16.07-.64 1-.13.26-.16a.88.88 0 0 0 .44-.67.92.92 0 0 0 .71-.64 2.16 2.16 0 0 0 1.12-1.41l.54-.19.8-1.19a2.35 2.35 0 0 1-.38-.89l.67-.55v-.6l1.25.09.32-.16a1.16 1.16 0 0 1 .64-.77l.06-.6.67-.36a2.86 2.86 0 0 1 .36-.16V197a1.07 1.07 0 0 1 .12-.51 1.61 1.61 0 0 0 .71-1.31l.45-.1.16-.29h.22l.61-1.15h.21l.25-.12v-.81h.23c.53-.57.8-.95.8-1.12l.16-.13-.16-.48c.51-.62.93-.93 1.25-1l.6-.51.71.71.89.48.1.83a2.14 2.14 0 0 1 .26.38 2.26 2.26 0 0 1 .51 1.12l.19.8.48.71.29 1.05.06.51.58.71-.2.23.26.23v.64l.06.48c-.06.32-.1.43-.1.35l.16.16.2.25a2.83 2.83 0 0 0 .6-.09h1a1.85 1.85 0 0 0 .39.06.75.75 0 0 0 .4-.14 1.13 1.13 0 0 1 .65-.15 2.45 2.45 0 0 1 1 .32l1 .07a1.47 1.47 0 0 1 .07.38.81.81 0 0 1-.48.74l-.48-.16-.9.64-.73-.1-.32.16-.71.07v-.13l-.83.19v.19l.06.74.42.57.06.58.74 1-.07.36.29.28.77 1.19.54.54.13.26.58.29.22.51zm-7.91-8.64l-.35-.35.38-.32a.84.84 0 0 1-.26-.67l-.23-.13-.16-1.31-.38-.55-.09-.54-.07-.13h-.22l-.1-1.15-.28-.42-.16-.06-.1-.13-.13.22-.76 1-.26.55-.64.57-.13.58-.73.32a1.81 1.81 0 0 1-1 1.38l-.23.64-.41.41h.29a3 3 0 0 0 1 .19h.12a.92.92 0 0 1 .39-.09 1.2 1.2 0 0 1 .51.13h.13a4.4 4.4 0 0 1 .61 0 7 7 0 0 1 .76 0l1.12-.13.74.38c.36-.15.58-.29.64-.44zm-27.72 86.13l-.13.39-.13.64-.58.48-.12.41-.39.1-.41.61-.74.16-.64.44-.93.1-.48.51h-.83l-.35.23-.45-.07a3.86 3.86 0 0 1-1.5.61l-.23-.13-.93.67-.35-.19-.22.16-.58-.13-.22.13-.58.07-.45-.1-.57.48-.67-.29a.94.94 0 0 1-.36.16l-.19-.22a1.44 1.44 0 0 1-1.05.45h-.16c-.09-.09-.15-.13-.2-.13l-.51.57-.61.2-.51-.3-.13-.6-.7.26s.06-.07.06-.09V291a.27.27 0 0 1 0-.12c0-.06 0-.11.13-.13l-.54-1v-1.29l.16-.54-.16-.74.28-.51-.12-.42.09-.7c-.06-.24-.14-.49-.22-.77v-.45c-.71-.36-1.1-.7-1.19-1a1.82 1.82 0 0 1 .93-1.22 3 3 0 0 1 .35-.22l-.22-.71.25-.09-.12-.48.09-.13-.19-.48.1-.26v-.73l-.38-.77.06-.32-.19-.13V277l-.16-.25-.22-.77-.35.29-.31-.23-.35.23-.12-.16-.54.35-.32-.48-.63.38c-1.05-.62-1.58-1.16-1.58-1.63a.73.73 0 0 1 .68-.77 1 1 0 0 1 .92-.51h.13l.35.16h.07a11.15 11.15 0 0 1 2.05.13 4 4 0 0 1 1-.13l.16.13.22-.07.9.32 1.85.23h1.44a2 2 0 0 1 .87.27l.25.12a5.9 5.9 0 0 0 .87.12l.76-.13.16.19a1 1 0 0 1 .74.32h.93l.38.36a2.2 2.2 0 0 0 .71.16l.64.19.25.25h.74l.19.45.67.42.23 1-.52.93a2.61 2.61 0 0 1-1.4.93l-.52.28-.25-.06-.67.45h-.39l-.67.22h-.06l-.42.54-.61.1a3.63 3.63 0 0 1-1.66.41l-.79.26h-.67l-.55.29-.41.06 1.12.32h.64l1.05.09 1.22-.19.06.1h.64a1.18 1.18 0 0 1 1 .32.85.85 0 0 1 .52-.16 2.63 2.63 0 0 0 .73.19 1.66 1.66 0 0 0 .61-.16 3.73 3.73 0 0 0 1.57.22l.29.16a5.26 5.26 0 0 1 1.4.39h.52a1.19 1.19 0 0 0 .86.38 7.41 7.41 0 0 0 1.06.74.88.88 0 0 1 .45.74zm-7.4-7.29v-.26h-.09l-.23-.26H359l-.32-.16a3.52 3.52 0 0 1-.45-.13l-.35.26-.64-.48-.54-.16-.23.13-.6-.32h-.16a8.21 8.21 0 0 1-1.06-.1l-.74.1-.38-.35-.35.06h-.13l-.19.16-.61-.23-.13.07v.76l.16.6-.16.48.16.73v.67l.19.51-.19.54v.06h.53a4.82 4.82 0 0 1 .5-.13v.1l.39-.31.06-.27h.8a2.59 2.59 0 0 0 1.28-.57h.39l.16-.13a1.52 1.52 0 0 1 1.08-.51h.13a.39.39 0 0 0 .29-.16l.86-.26h.1a1.83 1.83 0 0 1 .86-.44zm4.58 7.68l-.1-.07-.51-.06-.13-.16h-.16l-.74-.32-.61.06-.29-.25-.65.06a1 1 0 0 0-.41-.22 1.26 1.26 0 0 1-.55.16 1.56 1.56 0 0 1-.52-.2 8.69 8.69 0 0 1-1.19-.09h-1.09a3.46 3.46 0 0 0-1-.16 2.4 2.4 0 0 0-.48.06l-.71.16-.48-.32v.19l-1.42-.13a2.56 2.56 0 0 1-.35-.25.48.48 0 0 0-.55.54v.48l.23.45-.23.48.12.22-.06.46.23.38.08.58-.28.51v.17l.09.06.07.5h.9l.54-.19h.94l.22.09a.85.85 0 0 1 .32-.16l.55-.25h.9l.9-.29.77-.32h.45l.77-.34 1.09-.06a1.5 1.5 0 0 0 1.19-.52h.45l.35-.16.26-.36.7-.19.23-.38zm262.03 233.24a2.19 2.19 0 0 1-.45 1.34 3.91 3.91 0 0 1-1.44.35 1.34 1.34 0 0 1-.35-.06l-.29-.07-.83.42-.77-.06-.45.16-.22-.07-.58.32-.48-.12h-1.25l-.58.15h-.09l-.23.23-.45-.16-.25.16-.71-.23-.42.23a6.09 6.09 0 0 0-.9-.19 2.3 2.3 0 0 0-.87.22l-1.44.13-.13-.16-.55.14v.18l.29 1.6-.07.16.1.32v.42a5.54 5.54 0 0 1 .22 1l.38.38-.06.19.64.8a3 3 0 0 0 1.5.7h.36a.9.9 0 0 1 .35.1h.29c.27-.07.67-.14 1.18-.23l.35-.19.07-.13h.22l.26-.16.16.1.51-.16.41-.26.16-.22.55-.42.41-.06.77-.58c.53-.08.92-.51 1.15-1.28h.1v-.09h.42l.61-.51h.22a.73.73 0 0 1 .22 0c.41 0 .65.39.74 1.18l-1.41 1.67-.35.09-.13.19-.61.64-.86.52-.7.67h-.23l-.25.25-1.44.55-.58.64-.42-.16-.16.28-.28-.09-.16.16-1.06-.19-1.09.44-1.09-.35-1.37-.64c-1.18-.55-2.08-2.09-2.72-4.61v-.35l-.26-.73.26-.32-.16-.9v-.29l-.55-.6v-.39a1.45 1.45 0 0 1 .51-1.28 1.21 1.21 0 0 1 .36-.48l-.13-.1v-1.34l.39-1 .09-.51h-.45a1.06 1.06 0 0 1-.77-.31 1 1 0 0 1-.32-.72 1.67 1.67 0 0 1 .61-1.09l.22-.22.29-.13a2.15 2.15 0 0 1 .8-.22h.61l.31-.77 1.44.1.1.1a4.55 4.55 0 0 1 .86-.06l.6-.14h.16a1.87 1.87 0 0 0 .8-.51l.48.29h.8l3.2-.29.32.19.45-.11.25-.3.64.41.23-.19.7.29.48-.1.26.1 1-.1.23.16.51.1c.49.09.73.32.73.7a1 1 0 0 1-.27.68.78.78 0 0 1-.56.28h-.13l-.35.2-.64-.2H624a.85.85 0 0 1-.25 0 1.21 1.21 0 0 1-.58-.13l-.09-.13a2.41 2.41 0 0 1-.42.07.88.88 0 0 1-.32-.07 3.31 3.31 0 0 1-1.18.39h-1a1.42 1.42 0 0 1 .13-.22l-.83.26h-.06a2 2 0 0 0-.84.45l-.41-.2-.19.13-.77-.22-.45.22h-.64l-1 .19-.8.35-.22-.12-.42.28h-.42l-.09.16.09.39-.54.64h.26v.96l.35.39-.29.26a2 2 0 0 0-.32.73c0 .09.06.15.19.19l.39-.12a1.66 1.66 0 0 1 .32 0 5.68 5.68 0 0 1 .7.12l.58-.22.51.1H617a1.52 1.52 0 0 0 .51-.23 1.59 1.59 0 0 0 .73.13h.55a.28.28 0 0 1-.13 0h.1a10.65 10.65 0 0 1 1.15.16 4 4 0 0 1 1-.11 6.15 6.15 0 0 1 .64 0h1.22a1.57 1.57 0 0 1 .83-.26 1.88 1.88 0 0 1 .57.09l.45-.09.39.16 1.28-.32zm.08-328.45v.1a.16.16 0 0 0 0 .09l-.12.32-.1.48-.64.87-.22.48-.68.28-.22.29-.9.26-.57.32h-.29l-.19.29h-.84a1.41 1.41 0 0 1-1.18.48c-.08-.09-.14-.13-.16-.13a1.6 1.6 0 0 0-.42.22l-.54-.06-.22.09-.61-.06.16.1a5.8 5.8 0 0 1-1.12.19.54.54 0 0 1-.22 0 5.37 5.37 0 0 1-1.51.28h-.32l-.48.13-.41-.16-.23.1-.41.41-.58-.13-.35-.12h-.07l-.38.09-.06.63-.19.51-1 1.14-.41-.36h-.66l.12-1.12v-.38l-.22-.16a4.8 4.8 0 0 0-.45.26h-.86l-.61-.42-.26-.74.46-.41a3.32 3.32 0 0 1 1.53-.74l-.05-.06a1 1 0 0 1-.08-.32.86.86 0 0 1 .13-.45l-.1-1.47.1-.38v-.68l.29-.35-.45-.64.45-.9-.16-1.91.06-.74v-.48l-.29-.71v-1l-.19-.45-.19-.09-.71.32-1.21.09c-.39 0-.66-.36-.84-1.08l-.22-1a2.43 2.43 0 0 1 1.47-.67h.02a6.31 6.31 0 0 1 1.66-.25.74.74 0 0 1 .29.08 1 1 0 0 0 .35.08l.8-.16.13.25h1.15l1.25.27.42.24.92-.12.36.52h.19l.54.34h.32l.38.15h.13a1.49 1.49 0 0 1 .9.29 2.89 2.89 0 0 1 1.44.81 2.36 2.36 0 0 1 .45.16 1.55 1.55 0 0 0 .86.34l.9.63.86.72-.09.09h.79l.32.23.1.48a11.61 11.61 0 0 1 1.69 1.73c0 .06 0 .14.07.22l.51.29v.8l.29.29a1 1 0 0 0 0 .32l.1.06a1.15 1.15 0 0 1 .32.69zm-2.5.23l-.1-.61-1-1.25h-.32l-.35-.86a5.39 5.39 0 0 1-1-.51l-.1-.38-.15-.12-1-.29-.29-.51-2.27-1.24H617a1.39 1.39 0 0 1-.86-.28l-.1-.26h-.61l-.16-.13-.41-.09a.93.93 0 0 1-.26 0c-.19 0-.31-.05-.35-.14v-.1l-.39-.25h-.58a1 1 0 0 0-.67-.31l-.23.51h-.16l.39.78-.23.26a3.4 3.4 0 0 1 .23.78v.55l.25.84-.25.1v1.27s0 .28-.13.71l.22.2-.35 1 .23.72-.42.5.29.45-.07.64.23.38-.26.45v.13h.32l1.09-.16a2.78 2.78 0 0 1 .83-.12 2.66 2.66 0 0 1 .84.12 3 3 0 0 0 1.44-.44c1-.07 1.41-.1 1.18-.1h.51a.56.56 0 0 0 .48-.16l.51-.12a1.59 1.59 0 0 1 .9-.32 1 1 0 0 1 .38.09 1.29 1.29 0 0 1 .39-.09l.35-.48.51.12.23-.09.44-.32h.2l.83-.61zm-444.29-27.81l-.42 1c-.08.7-.4 1.08-1 1.15l-.22.45-1.09.67-.26.32-.54.51a6.15 6.15 0 0 0-.74.13 5.41 5.41 0 0 1-2 1.15l-.58.29a8.68 8.68 0 0 0-1.76.48l-.6.38-.61-.09a2.89 2.89 0 0 1-1 .22 2.17 2.17 0 0 1-.73-.13c0 .09-.12.13-.35.13a3.26 3.26 0 0 1-.9-.19h-.26l.13-.13-.57.16-.26-.06-.32.09-1-.37-.42-.25-.8-.25-.16-.34c-.66-.08-1-.36-1.12-.84v-.12h.07a3.32 3.32 0 0 1-.64-1.16c-.17 0-.36-.22-.56-.62a2.61 2.61 0 0 1-.31-1.2v-.83a2.93 2.93 0 0 1-.09-.83l.09-.55v-.73l.27-.13v-.19l.43-1.44.43-.93.26-.67a2.43 2.43 0 0 1 .56-1.06l.14-.16-.16-.64.7-.35q.28-.28.45-.42l.13-.73.48-.23.16-.57a1.5 1.5 0 0 0 .86-.29 2 2 0 0 1 .9-.74l.28-.25.84-.23.48-.29.6.29a6.85 6.85 0 0 1 1-.16h.36l.19.07h.38a6.93 6.93 0 0 0 1.54.54l.41.35 1.89 1.06.23.45.32.29.22.67.19.48.1.61v1.31c0 .66-.63 1.14-1.9 1.44l-.65-.42-.36-.48-.2-.67v-.48l-.08-.51v-.8l.09-.35-.16-.26-.41-.29-.1-.06q-.93-.25-1-.51h-.61l-.25-.16-.16.35-.61-.39-.16.1-.38-.06-.39.25a2.2 2.2 0 0 0-.61-.09l-.41.57-.9.8-.77 1.06-.16.06-.22.71-.38.25v.29l-.63.93-.3 1.28v.13l-.23.51.23.51-.39.29v.13l-.12.09v.9l-.01.71.26.42.06.19.29.25v.45l.35.48-.13.23.45.44v.16l1.15.42v.19l.84.1.32.29.73-.26.36.38h.19a1.25 1.25 0 0 1 .73-.26h.77l.23.16.29-.13a2.88 2.88 0 0 0 .48 0 1.57 1.57 0 0 1 1.12-.41 1.26 1.26 0 0 1 .9-.26 2.29 2.29 0 0 1 .93-.44 1.1 1.1 0 0 0 .61-.16l.25-.42.48-.12.45-.22.37-.4.58-.26 1.69-1.63 1-.55z"/></svg>